<svg xmlns="http://www.w3.org/2000/svg" xmlns:xlink="http://www.w3.org/1999/xlink" viewBox="0,0,256,256" width="100px" height="100px"><g fill="#0038ff" fill-rule="nonzero" stroke="none" stroke-width="1" stroke-linecap="butt" stroke-linejoin="miter" stroke-miterlimit="10" stroke-dasharray="" stroke-dashoffset="0" font-family="none" font-weight="none" font-size="none" text-anchor="none" style="mix-blend-mode: normal"><g transform="scale(5.12,5.12)"><path d="M25.12891,21.48047c-0.8125,0 -1.21484,1.51563 -1.21484,3.41797c-0.01562,2.05469 0.34375,3.51172 1.21484,3.51172c0.82422,0 1.15234,-1.45703 1.15234,-3.55469c0,-1.89062 -0.28516,-3.375 -1.15234,-3.375zM43.48047,4h-36.96094c-1.38672,0 -2.51953,1.13281 -2.51953,2.51953v36.96094c0,1.38672 1.13281,2.51953 2.51953,2.51953h36.96094c1.38672,0 2.51953,-1.13281 2.51953,-2.51953v-36.96094c0,-1.38672 -1.13281,-2.51953 -2.51953,-2.51953zM17.88281,30.08984c-0.8125,0 -1.60547,-0.21094 -1.9375,-0.40625l0.28516,-1.69531c0.40625,0.22656 1.09766,0.39063 1.66797,0.39063c0.92969,0 1.37891,-0.48047 1.37891,-1.14062c0,-0.73437 -0.44922,-1.09375 -1.30469,-1.64844c-1.37891,-0.83984 -1.90625,-1.90625 -1.90625,-2.82031c0,-1.62109 1.08203,-2.96875 3.19531,-2.96875c0.66016,0 1.28906,0.17969 1.58984,0.35938l-0.31641,1.69531c-0.28125,-0.17969 -0.71875,-0.34375 -1.28906,-0.34375c-0.83984,0 -1.24219,0.50781 -1.24219,1.04688c0,0.60156 0.30078,0.91797 1.39453,1.57813c1.33594,0.80859 1.82813,1.82813 1.82813,2.89453c0,1.84375 -1.36328,3.05859 -3.34375,3.05859zM28.11328,31.64844c-0.87109,-0.35937 -1.84766,-0.86719 -2.59766,-1.32031c-0.22266,-0.11719 -0.38672,-0.20703 -0.47656,-0.20703c-1.96875,0 -3.16797,-1.90625 -3.16797,-5.20703c0,-2.71484 1.09766,-5.14453 3.34766,-5.14453c2.44141,0 3.12109,2.68359 3.12109,4.99609c0,2.50391 -0.57031,4.0625 -1.51953,4.57422v0.07422c0.64844,0.28516 1.35156,0.51172 1.98047,0.75zM34.14453,30h-4.5625v-10.10937h1.96484v8.44531h2.59766z"></path></g></g></svg>