<svg width="651" height="762" viewBox="0 0 651 762" fill="none" xmlns="http://www.w3.org/2000/svg">
<line x1="647.249" y1="457.684" x2="250.432" y2="309.358" stroke="#0038FF" stroke-width="10"/>
<line x1="241.588" y1="428.63" x2="111.829" y2="536.391" stroke="#0038FF" stroke-width="10"/>
<line x1="132.954" y1="293.847" x2="3.1944" y2="401.607" stroke="#0038FF" stroke-width="10"/>
<line x1="114.097" y1="531.435" x2="8.13113" y2="400.205" stroke="#0038FF" stroke-width="10"/>
<line x1="256.009" y1="308.817" x2="127.229" y2="417.748" stroke="#0038FF" stroke-width="10"/>
<line x1="465.675" y1="637.037" x2="344.244" y2="754.104" stroke="#0038FF" stroke-width="10"/>
<line x1="348.901" y1="521.6" x2="227.47" y2="638.667" stroke="#0038FF" stroke-width="10"/>
<line x1="347.578" y1="757.934" x2="232.192" y2="634.905" stroke="#0038FF" stroke-width="10"/>
<line x1="468.296" y1="526.778" x2="346.865" y2="643.845" stroke="#0038FF" stroke-width="10"/>
<line x1="672.49" y1="144.324" x2="467.49" y2="25.3243" stroke="#0038FF" stroke-width="10"/>
<line x1="461.29" y1="132.765" x2="334.29" y2="243.765" stroke="#0038FF" stroke-width="10"/>
<line x1="351.29" y1="3.76472" x2="224.29" y2="114.765" stroke="#0038FF" stroke-width="10"/>
<line x1="336.433" y1="238.753" x2="227.19" y2="110.238" stroke="#0038FF" stroke-width="10"/>
<line x1="473.29" y1="24.7647" x2="346.29" y2="135.765" stroke="#0038FF" stroke-width="10"/>
<line x1="647.826" y1="680.863" x2="462.826" y2="528.863" stroke="#0038FF" stroke-width="10"/>
</svg>
